<svg xmlns="http://www.w3.org/2000/svg" viewBox="0 0 512 512" width="512" height="512">
  <rect width="512" height="512" rx="100" fill="#0B2545"/>
  <path d="M256 100 L412 180 L256 260 L100 180 Z" fill="#EEB902" stroke="#ffffff" stroke-width="8"/>
  <path d="M150 208 L150 330 C150 380 256 420 256 420 C256 420 362 380 362 330 L362 208" fill="none" stroke="#EEB902" stroke-width="12" stroke-linecap="round" stroke-linejoin="round"/>
  <path d="M256 260 L256 420" fill="none" stroke="#ffffff" stroke-width="6" stroke-dasharray="10,10"/>
  <circle cx="256" cy="180" r="24" fill="#0B2545" stroke="#ffffff" stroke-width="6"/>
  <path d="M370 185 L370 300 C370 305 375 310 380 310 C385 310 390 305 390 300 L390 185" fill="none" stroke="#ffffff" stroke-width="8" stroke-linecap="round"/>
  <polygon points="380,300 390,320 370,320" fill="#ffffff"/>
</svg>
